# xmcd
#
# Track frame offsets: 
#        150
#        29399
#        44099
#        59699
#        89924
#        105674
#        117734
#        131049
#        142684
#        154241
#        164444
#        177383
#        191288
#        205138
#        219831
#        230673
#        245476
#        254899
#        274811
#        289489
#        303649
#        317436
#        328966
#        341748
#        354008
#
# Disc length: 4868 seconds
#
# Revision: 0
# Processed by: cddbd v1.5.2PL0 Copyright (c) Steve Scherf et al.
# Submitted via: ExactAudioCopy v0.99pb4
#
DISCID=96130219
DTITLE=Various Artist - Country Music Of America 2
DYEAR=1900
DGENRE=
TTITLE0=The Eagles - Hotel California
TTITLE1=Andy Williams - No Getting Over Me
TTITLE2=Bob Bare - The Yellow Ribbon Round The Old Tree
TTITLE3=Dan Forgel - Sutters Mill
TTITLE4=Simon and Garfunkel - Scarborough Fair
TTITLE5=Cliff Richard - Evergreen Tree
TTITLE6=The Brothers Four - The Green Leaves Of Summer
TTITLE7=Glen Campbell - All I Have To Do Is Dreaming
TTITLE8=Judy Collins - When A Child Is Born
TTITLE9=Patsy Cline - Seven Lonely Days
TTITLE10=Johnny Horton - North To Alaska
TTITLE11=The Brother Four - Lemon Tree
TTITLE12=Kingston Trio - Tom Dooley
TTITLE13=Don Gibson - Can't Stop Loving You
TTITLE14=The Everly Brothers - Devoted To You
TTITLE15=Wynners - 4:55(Part Of Game)
TTITLE16=Charley Pride - Kiss An Angel Good Morning
TTITLE17=Judy Collins - Amazing Grace
TTITLE18=Juhn Baze - Doona Donna
TTITLE19=Kingston Trio - Where Have All The Flowers Gone
TTITLE20=Sandy Folar - Green Leaves
TTITLE21=Sammi Smith - Help Me Make It Through The Night
TTITLE22=Eddy Arnorld - Then You Can Tell Me Goodbye
TTITLE23=Peter Paul and Mary - Gone The Rainbow
TTITLE24=Frankie Laine - Rose Rose I Love You
EXTD=
EXTT0=
EXTT1=
EXTT2=
EXTT3=
EXTT4=
EXTT5=
EXTT6=
EXTT7=
EXTT8=
EXTT9=
EXTT10=
EXTT11=
EXTT12=
EXTT13=
EXTT14=
EXTT15=
EXTT16=
EXTT17=
EXTT18=
EXTT19=
EXTT20=
EXTT21=
EXTT22=
EXTT23=
EXTT24=
PLAYORDER=
